
<svg xmlns="http://www.w3.org/2000/svg" xmlns:xlink="http://www.w3.org/1999/xlink" width="67" height="66.99977111816406" viewBox="0 0 67 66.99977111816406" fill="none">
<path d="M67 16.1008C67 11.8297 65.3041 7.74674 62.2891 4.71092C59.2531 1.69605 55.1703 -3.27147e-06 50.8991 -3.27147e-06L16.1009 -3.27147e-06C11.8297 -3.27147e-06 7.7469 1.69605 4.71094 4.71092C1.69593 7.74674 0 11.8297 0 16.1008L0 50.8991C0 55.1701 1.69593 59.2529 4.71094 62.2888C7.7469 65.3036 11.8297 66.9998 16.1009 66.9998L50.8991 66.9998C59.7975 66.9998 67 59.7975 67 50.8991L67 16.1008ZM26.4756 11.1691L13.2849 35.9593C12.8453 36.7965 12.8453 37.8018 13.2849 38.639L21.639 54.3421C22.1415 55.2636 23.1047 55.8498 24.1725 55.8498L42.8278 55.8498C43.8956 55.8498 44.8587 55.2636 45.3612 54.3421L53.7153 38.639C54.155 37.8018 54.155 36.7965 53.7153 35.9593L40.5247 11.1691C40.3362 10.8343 40.064 10.5621 39.729 10.3944C38.8078 9.89196 37.6562 10.248 37.1747 11.1691L33.4897 18.0576L29.8256 11.1691C29.6581 10.8343 29.3859 10.5621 29.0509 10.3944C28.1297 9.89196 26.9781 10.248 26.4756 11.1691ZM18.3174 37.9582C18.0871 37.5393 18.0871 37.0368 18.3174 36.6182L27.3207 19.7217C27.4044 19.5541 27.53 19.4286 27.6975 19.3238C28.1791 19.0935 28.7444 19.2609 28.9957 19.7217L30.7963 23.1345L25.5198 33.0379C25.2686 33.5195 25.0594 34.001 24.9129 34.5033L24.8917 34.5663L24.8082 34.7967C24.5779 35.5923 24.4522 36.4298 24.4522 37.3089C24.4522 42.292 28.5139 46.3541 33.497 46.3541C38.5013 46.3541 42.5422 42.292 42.5422 37.3089C42.5422 35.6758 42.1235 34.1474 41.3697 32.8493L38.8572 28.1383L36.1563 33.2054L37.266 35.278C37.601 35.9063 37.7685 36.5971 37.7685 37.288L37.7894 37.288L37.7894 37.3718C37.7476 39.7167 35.8422 41.5804 33.497 41.5804C31.1311 41.5804 29.226 39.6749 29.226 37.3089L29.226 37.288C29.226 37.0158 29.2469 36.7436 29.3095 36.4505L29.3095 36.3879C29.3426 36.2495 29.3797 36.1153 29.4213 35.9855C29.5126 35.7022 29.6267 35.4384 29.7704 35.1943L29.7704 35.1733L33.497 28.1802L33.497 28.2012L36.1982 23.1345L37.9988 19.7217C38.1035 19.5541 38.2291 19.4286 38.3966 19.3238C38.8572 19.0935 39.4435 19.2609 39.6738 19.7217L48.6769 36.6182C48.9072 37.0368 48.9072 37.5393 48.6769 37.9582L42.0816 50.332C41.8304 50.7929 41.3488 51.086 40.8254 51.086L26.1689 51.086C25.6455 51.086 25.1641 50.7929 24.9129 50.332L18.3174 37.9582Z" fill-rule="evenodd"  fill="url(#linear_fill_dJdhr5mxfoVMeyVcGMquV)" >
</path>
<defs>
<linearGradient id="linear_fill_dJdhr5mxfoVMeyVcGMquV" x1="33.540191650390625" y1="58.39222717285156" x2="33.540191650390625" y2="0.000396728515625" gradientUnits="userSpaceOnUse">
<stop offset="0" stop-color="#FF6C72"  />
<stop offset="1" stop-color="#FF8343"  />
</linearGradient>
</defs>
</svg>
